<?xml version="1.0" encoding="UTF-8"?>
<svg id="Layer_2" data-name="Layer 2" xmlns="http://www.w3.org/2000/svg" viewBox="0 0 415.11 111.57">
  <defs>
    <style>
      .cls-1 {
        fill: #f4e12a;
      }
    </style>
  </defs>
  <g id="Layer_1-2" data-name="Layer 1">
    <g>
      <path class="cls-1" d="M87.1,20.24c3.8-5.8,6.01-12.5,7.61-19.25h.02s.23-.99.23-.99h-7.88s0,.26,0,.26c-.99,8.95-5.94,17.39-13.28,22.62-6.7,4.78-15.02,6.81-23.23,7.32-9.78.6-19.93-.93-28.3-6.02-1.48-.9-2.9-1.92-4.22-3.05-1.33-1.13-2.58-2.37-3.72-3.7-1.13-1.32-2.16-2.74-3.06-4.23-.89-1.48-1.66-3.04-2.27-4.65-.61-1.61-1.07-3.28-1.35-4.97-.19-1.16-.36-2.37-.3-3.55l-7.35-.03v.2c.48,11.32,5.7,22.75,15.08,29.1,8.61,5.83,19.1,6.82,29.15,7.91,2.7.29,5.4.59,8.08.98,4.4.64,8.89,1.31,12.89,3.37,8.6,4.44,13.79,13.8,15.63,23.03.6,3.02.84,6.1.68,9.17-.56,10.19-5.83,19.95-14.55,25.39-8.49,5.29-19.84,6.43-29.45,3.94-9.79-2.54-17.54-9.46-21.55-18.68-2.02-4.66-3.16-9.7-3.43-14.77,2.88-.14,5.75-.27,8.63-.41-4.78-5-9.57-10.01-14.35-15.01-1.55,8.52-1.57,17.38.62,25.76,2.19,8.38,6.65,16.24,13.19,21.92,7.58,6.58,17.79,9.78,27.75,9.65,10.78-.14,21.68-4.18,29.6-11.57,3.39-3.17,6.29-7.03,8.26-11.28,4.43-9.54,3.92-21.1.84-30.95-1.51-4.82-3.7-9.42-6.45-13.65-2.74-4.21-6.2-7.95-10.18-11.01,6.94-1.85,12.74-6.87,16.67-12.88Z"/>
      <g>
        <path class="cls-1" d="M126.35,78.74h24.47v11.57h-38.42V21.26h13.94v57.49Z"/>
        <path class="cls-1" d="M194.56,60.43h-21.72v18.31h25.71v11.57h-39.65V21.26h39.56v11.62h-25.61v16.32h21.72v11.24Z"/>
        <path class="cls-1" d="M254.84,90.31h-13.94l-20.4-45.3v45.3h-13.94V21.26h13.94l20.44,45.34V21.26h13.9v69.06Z"/>
        <path class="cls-1" d="M266.04,90.31V21.26h21.34c7.21,0,12.69,1.61,16.43,4.81,3.75,3.21,5.62,7.91,5.62,14.11,0,3.51-.78,6.53-2.32,9.06-1.55,2.53-3.67,4.38-6.36,5.55,3.1.89,5.49,2.66,7.16,5.34,1.68,2.67,2.51,5.97,2.51,9.89,0,6.7-1.84,11.76-5.53,15.18-3.68,3.42-9.02,5.12-16.01,5.12h-22.86ZM279.98,50.14h7.26c5.47,0,8.21-2.83,8.21-8.49,0-3.13-.63-5.38-1.9-6.74-1.26-1.36-3.32-2.04-6.17-2.04h-7.4v17.26ZM279.98,60.29v18.45h8.92c2.5,0,4.39-.77,5.69-2.32,1.3-1.55,1.94-3.75,1.94-6.59,0-6.2-2.25-9.37-6.74-9.53h-9.82Z"/>
        <path class="cls-1" d="M356.2,60.43h-21.72v18.31h25.71v11.57h-39.65V21.26h39.56v11.62h-25.61v16.32h21.72v11.24Z"/>
        <path class="cls-1" d="M415.02,67.31c-.35,7.87-2.56,13.83-6.64,17.88-4.08,4.05-9.83,6.07-17.26,6.07-7.81,0-13.8-2.57-17.95-7.71-4.16-5.14-6.24-12.47-6.24-21.98v-11.62c0-9.49,2.15-16.8,6.45-21.94,4.3-5.14,10.28-7.71,17.93-7.71s13.24,2.1,17.15,6.31c3.91,4.21,6.13,10.24,6.66,18.12h-13.99c-.13-4.87-.88-8.23-2.25-10.08-1.38-1.85-3.9-2.77-7.57-2.77s-6.37,1.3-7.92,3.91c-1.55,2.61-2.37,6.9-2.47,12.88v13.04c0,6.86.77,11.57,2.3,14.13,1.53,2.56,4.17,3.84,7.9,3.84s6.2-.89,7.59-2.68c1.39-1.79,2.18-5.02,2.37-9.7h13.94Z"/>
      </g>
    </g>
  </g>
</svg>